<svg width="25" height="25" viewBox="0 0 25 25" fill="none" xmlns="http://www.w3.org/2000/svg">
<path d="M20.3133 25H4.6877C2.10321 25 0 22.8972 0 20.3132V9.96172C0 8.40259 0.771907 6.94969 2.06571 6.07796L9.87854 0.806905C11.4692 -0.268968 13.5297 -0.268968 15.1225 0.806905L22.9343 6.07796C24.2281 6.95074 25 8.40259 25 9.96172V20.3132C25 22.8972 22.8978 25 20.3133 25ZM12.5005 1.04124C11.7901 1.04124 11.0807 1.25059 10.4619 1.66927L2.64803 6.93928C1.64174 7.61834 1.04171 8.74733 1.04171 9.96068V20.3122C1.04171 22.3223 2.67719 23.9575 4.6877 23.9575H20.3133C22.3238 23.9575 23.9593 22.3223 23.9593 20.3122V9.96172C23.9593 8.74837 23.3593 7.61938 22.353 6.94032L14.5402 1.66927C13.9204 1.25163 13.211 1.04124 12.5005 1.04124Z" fill="black"/>
</svg>
